<svg xmlns="http://www.w3.org/2000/svg" viewBox="0 0 11037.14 1736.84"><path d="M17.3 1073.84C7.86 1033.53-.26 1000.08 0 960.04c.34-50.29 7.33-95.97 20.49-144.24 22.96-84.2 47.8-132.45 109.74-195.1 66.3-67.05 152.71-108.69 246.83-118.22 34.84-3.53 67.96-7.69 102.21-4.87 41.69 3.44 79.39 11.11 118.12 25.99 30.24 11.61 58.7 23.07 79.28 50.01 7.08 9.26 19.81 13.5 33.05 9.3L708 541.09l.72-41.43-.1-289.64c0-11.89-5.28-24.49 2.66-33.84 8.89-10.46 22.11-5.39 35.27-5.04 57.25 1.55 112.93 1.59 170.11 0 15.23-.42 29.98-7.1 40.89 11.15l.04 1184.95c0 7.7-.76 15.68-3.07 19.08s-11.67 6.17-16.62 6.15l-203.84-.58c-16.26-.05-20.67-21.09-18.68-34.23l7.29-48.19c.41-2.72-3.06-10.34-4.63-11.99-2.1-2.2-10.75-.07-13.08 2.15l-44.88 42.79c-21.87 20.85-52.66 32.01-81.73 42.38-70.53 25.16-144.45 21.27-218.33 13.63-25.53-2.64-46.85-9.46-70.7-17.49-50.09-16.85-91.21-43.22-131.56-76.65-72.5-60.08-118.8-137.9-140.48-230.46Zm694.04-98.54-2.39-63.56c-2.5-66.6-52.38-141.29-111.76-178.8-45.4-28.68-113.77-43.58-162.22-27.46-72.81 24.21-115.94 49.56-150.95 119.56-20.94 41.88-27.33 81.88-27.22 127.1.28 119.96 76.51 219.99 193.46 242.76 125.66 24.46 252.57-83.08 261.08-219.6m8257.17 323.04-36.29-85.43-25.93-61.12-38.28-93.56-31.22-73.07-51.5-124.23-25.46-62.56-44.92-102.81-29.98-70.92-28.59-71.77c-5.88-14.77-13.69-22.81-16.71-44.35l46.44 1.97 154.85.34c15.02.03 41.3-9.83 49.54 8.73l33.22 74.83 70.42 177.46 33.63 81.98 31.09 76.23 42.01 106.82 11.75 44.35c1.23 4.63 8.12 12.91 12.13 14.73 4.69 2.12 15.72-6.19 17.18-11.18l12.84-43.79 34.11-90.68 52.51-127.16 23.21-52.32 73.61-138.54 84.49-131.54 97.85-117.6 29.02-31.09 86.37-73.95c62.08-53.15 127.92-99.21 202.64-133.02l106.75-48.3 83.28-29.25 69.01-18.97 123.9-27.48 116.83-17.24 88.61-3.85c2.37-.1 8.82 8.23 7.26 9.84s-6.83 7.37-9.71 7.73l-69.21 8.58-66.03 18.13-74 22.41c-70.87 21.46-137.48 55.29-199.23 95.28l-63.93 41.4c-113.14 80.17-210.65 178.25-291.84 290.85l-100.5 155.86-59.05 116.82-19.72 40.28-61.31 139.26-45.76 114.47-23.7 63.72-24.7 66.61-40.84 103.9-29.4 83-30.88 73.22-35.81 80.86c-30 67.74-84.47 123.5-145.99 164.37-23.24 15.44-46.38 22.86-72.41 28.76-70.88 16.07-109.99 14.11-179.13 1.23l-47.51-8.86c-34.14-14.04-68.84-32.26-96.99-53.28-17.21-12.85 4.17-31.63 9-41.72l40.23-84.12 20.59-57.39c16.08-4.15 29.74 7.16 42.93 17.54 35.86 28.24 133.33 44.09 178.42 9.04 36.18-28.13 60.51-71.35 72.42-113.63l-41.61-95.84Zm-6818.6 103.15c-65.85-.02-157.2-31.32-212.72-68.81-26.78-18.09-55.46-34.47-78.34-58-35.69-36.7-68.05-80.15-87.37-126.85-15.06-36.39-27.93-70.53-36.87-108.44l-3.34-48.37c-7.54-109.25 3.4-151.73 44.28-246.26 18.54-42.89 50.27-78.17 82.52-113.05 34.93-37.79 115.91-89.7 163.18-103.25l62.11-17.8 91.48-12.67c74.08-10.26 147.94 5.75 219.4 30.26 53.75 18.44 102.89 48.13 145.96 85.34 39.18 33.85 69.82 74.99 95.9 120.03 18.05 31.18 25 67.94 38.52 101.74 18.18 45.42 16.58 111.92 12.52 164.75-1.48 19.29-2.78 37.71-9.27 55.64l-41.29 114.04c-41.58 67.64-92.57 121.02-158.49 163.1-58.19 37.14-145.3 68.67-212.72 68.66l-115.47-.03Zm102.74-204.02c105.37-27.79 184.61-124.3 182.9-228.21l-.89-53.9c-8.34-63.65-36.35-120.07-86.88-162.34-81.7-68.33-195.24-73.99-280.36-3.87-129.78 106.91-113.39 313.38 6.04 403.16 25.79 19.38 57.3 34.53 88.07 42.88 29.77 8.08 57.7 3.04 91.12 2.28m2412.56 72.85c-41.93 39.91-86.56 75.82-139.65 97.21l-63.59 20.85c-35.71 11.71-73.91 10.23-111.09 13.62-35.54 3.24-69.53 3.46-105.19-1.47l-85.45-11.81-50.72-16.74c-63.29-20.89-156.3-80.37-191.62-132.13l-48.48-71.03-35.37-84.83c-19.85-47.6-16.76-100.19-16.84-151.76l5.83-77.92c2.3-30.79 11.25-59.45 25.67-86.64l41.7-78.66c34.92-65.86 146.69-141.11 210.7-160.94l52.01-16.11c51.83-16.06 105.24-17.2 158.89-14.3 165.7 8.97 311.76 96.69 377.33 249.69l33.86 114.41c12.66 42.76 6.8 87.96 4.72 132.15-.52 11.01-15.56 22.32-26.85 22.31l-574.61-.49c-20.07-.02-39.27-6.93-58.93-2.04-1.72 5.68-3.2 20.28-.45 25.56 12.68 24.33 26.59 52.87 44.84 75.1 33.95 41.38 84.04 76.28 136.57 84.61 47.19 7.48 91.25 6.32 137.42.68 52.08-6.36 97.01-37.63 132.8-73.73 9.93-10.02 22.02-5.62 30.24 2.84l112.46 115.74c5.1 5.25 13.05 16.98 3.8 25.79Zm-416.09-408.15 156 .58c17.32.06 30.77-2.39 49.02 1 9.12 1.7 24.78-1.72 28.56-8.36 3.29-5.79 3.72-21.91.19-28.02-16.38-28.35-29.84-57.48-51.13-81.34-38.74-43.41-94.47-59.93-152.49-64.02-54.53-3.85-118.77 24.43-159.51 64.06-20.26 19.71-30.35 47.41-45.94 70.23-7.37 10.78-16.92 24.88-9.66 35.89 12.19 18.49 30.26 8.76 46.24 8.89l138.74 1.11Zm-1162.29-44.82c-11.61 27.82-19.73 60.35-19.9 92.2l-2.06 405.95c-.08 15.54-3.43 28.95.73 45.12 2.04 7.93-1.83 30.9-13.02 30.9l-226.58-.02c-13.95 0-20.64-25.67-12.07-36.85l-.02-825.95c0-5.74 1-12.52 2.99-15.06 2.48-3.16 11.9-6.42 16.29-6.19l60.46 3.16 103.55-.04 40.95-1.96c8.12-.39 18.52 18.63 16.96 27.02l-8.47 45.69c-1.86 10.02 4.93 24.97 18.58 21.08 9.49-2.7 46.78-49.97 124.06-78.21 111.55-40.76 231.31-36.72 336.95 14.72 52.35 25.49 111.76 88.18 134.22 142.72 14.33 34.79 25.4 71.97 28.6 110.28l4.08 48.95.56 531c.01 10.23-5.47 20.55-15.95 20.52l-219.57-.5c-16.52-.04-24.37-23.45-16.42-36.95l-.91-466.25-12.6-68.5c-12.34-67.06-106.5-119.82-178.88-105.52l-50.31 9.94c-27.59 5.45-48.37 16.76-67 38.32-14.73 17.04-36.03 32.41-45.22 54.42Zm4231.12 336.69c-14.85-151 91.12-252.5 235.37-278.08l84.57-15 47.93-3.81 151.07-.17c9.39-.01 26.53 5.58 34.96 1.51 28.07-13.55 8.32-97.95-68.23-140.79-55.56-31.1-102.98-27.64-165.88-22.43-33.31 2.76-61.7 12.11-91.31 24.79-31.12 13.32-59.31 26.1-88.04 45.53-8.77 5.93-21.87-3.05-26.17-11.46l-20.38-39.84-48.83-87.67c-2.49-4.47-6.41-14.7-4.96-19.06s8.12-11.94 12.47-14.17l69.42-35.49c40.19-20.55 80.4-35.77 125.32-43.01l75.91-12.22 32.61-3.31 103.72.23 65.56 7.52 76.15 20.24c34.66 9.21 66.54 30.79 95.08 51.75 34.37 25.25 60.18 56.96 76.89 95.55l26.4 60.98 16.43 86.22.09 557.97c-4.56 6.52-12.54 10.75-20.45 12.54l-184.21-.12c-43.25-1.65-14.28-41.13-21.19-90.41-12.87-4.27-24.26 4.25-30.78 13.9-22.36 33.07-56.13 49.86-91.41 65.27-76.86 33.55-229.99 29.61-304.73-4.34-71.32-32.4-129.98-85.65-153.35-162.38l-10.01-60.23Zm565.74-135.14c-8.94-18.69-32.61-7.79-46.45-7.84l-91.19-.35-48.96-.34c-39.56-.27-80.64 9.99-110.54 39.06-36.33 35.33-40 93.61-9.22 136.56 28.53 39.81 81.67 58.93 130.05 56.83 39.72-1.73 71.34-16.51 103.49-37.78 77.34-51.15 80.74-95.23 72.82-186.15Zm-2090.36 291.93c-33.01-32.16-50.48-66.83-62.19-108.69-14.88-53.22-10.93-102.2 5.86-153.91 19.38-59.69 55.68-104.35 112.59-133.16 48.66-24.63 98.44-40.95 153.93-46.13l65.95-12.58 179.49.31c14.35.02 32.41 11.35 43.83-7.29 5.02-8.19-4.71-26.17-7.67-35.77-12.86-41.78-36.57-73.5-74.64-94.87-22.92-12.86-46.93-23.33-74.65-25.07-48.65-3.04-98.47-2.17-146.2 11.02l-70.87 28.44c-47.16 18.93-50.44 38.14-70.6 34.82-6.36-1.05-11.04-11.63-15-19.36L5777.7 640.3c-7-13.67-16.06-23.08-17.05-40.3 49.1-28.62 95.93-57.19 150.66-69.9l103.31-24 67.01-5.99 95.96-.45 72.49 8.21 66.92 17.81c77.24 20.56 154.83 92.47 189.04 169.58 9.02 20.33 16.7 45.31 20.48 66.81l11.04 62.88.15 522.28c6.87 11.2 7.12 43.42-8.78 43.54l-199.24 1.41c-12.35.09-24.5-11.65-22.69-24.6l6.53-46.74c.64-4.6-3.1-14.93-6.76-16.55s-13.24 1.61-16.55 4.79l-46.49 44.65c-80.03 48.89-150.01 56.73-243.01 47.96-42.71-1.01-80.94-11.67-119.95-28.17-33.69-14.25-60.59-36.55-87.43-62.7Zm444.72-119.81c17.55-12.9 26.43-30.02 36.4-46.09 16.86-27.17 25.62-52.03 23.55-85.42-.87-14-.18-34.47-10.92-44.06-15.58-13.92-36.64-5.22-53.55-5.13l-56.47.3-71.57 1.22c-46.7-3.12-93.82 11.88-123.76 47.78-39.82 47.75-18.35 123.94 28.49 151.85 81.89 48.79 150.63 36.27 227.83-20.46Z"/><path d="M10249.21 1346.75c-37.24 23.85-111.03 47.29-155.44 50.46l-60.27 4.29c-39.23 2.8-76.26 3.71-115.72-1.01l-82.99-9.93-85.51-22.9c-42.23-11.31-80.16-35.5-116.75-57.78-12.42-7.57-12.66-22.49-6.65-33.64l33.64-62.37 38.37-87.47c19.54 5.16 31.38 16.49 48.31 25.62 35.38 19.07 75.92 38.51 115.96 45.36l83.73 14.32c56.04 9.58 112.91 6.7 163.44-20.26 20.64-11.01 38.13-35.71 39.94-59.36 1.31-17.1-14.01-34.85-26.96-44.9-32.37-25.11-72.13-31.73-112.43-39.18l-90.76-16.78c-104.57-19.33-220.15-56.68-261.68-159.39-23.16-57.26-22.58-128.91.85-187.55 33.31-83.37 109.93-139.3 193.61-162.02l85.69-18.86 176.12-.93 85.97 14.86c41.93 7.25 136.64 46.89 141.98 62.1 2.26 6.43-3.72 19.06-6.82 25.41l-40.86 83.59-22.07 50.19c-10.77 24.5-67.95-29.04-115.13-37.18l-91.88-15.84-91.64-.67c-44.5-.32-95.11 32.51-107.63 79.47 4.29 33.28 35.77 61.66 67.43 67.93l134.27 26.56 43.92 10.61c49 11.84 95.5 21.53 140.89 44.37 26.86 13.51 54.07 30.24 74.09 53.89 13.85 16.37 32.36 39.69 37.96 61.07 14.68 56.07 15.15 116.72 2.39 174.99-13.65 62.31-66.07 110.05-117.39 142.92Zm-4752.99-263.26c21.75 18.69 45.32 29.58 68.93 41.61l89.99 45.84c4.51 2.3 13.38 7.83 14.12 12.23s-3.68 12.81-6.84 17.89c-57.63 92.47-109.27 137.31-212.13 176.28-25.6 9.7-48.93 17.55-76.55 20.03l-51.07 4.6c-45.11 4.06-88.01.39-133.13-4.34-140.58-14.74-274.77-109.28-337.68-235.96l-31.06-80.89c-11.18-29.11-16.98-57.62-16.94-88.57l.11-84.19c.04-31.63 6.44-61.99 17.76-91.45l19.88-51.75c7.24-18.84 14.47-37.6 26.8-53.77l59.13-77.58c32.69-42.9 133.38-96.49 194.73-113.61 36.98-10.32 72.36-17.03 111.28-20.98h84.11l44.43 3.95c89.14 7.93 197.94 60.06 257.81 126.69l51.2 70.79c-3.84 7.96-12.32 18.09-18.95 21.72l-80.43 44.01-66.68 41.05c-5.08 3.13-19.05 7.59-23.81 4.79-5.44-3.2-10.88-11.45-17.58-18.11l-52.12-51.8c-18.76-18.65-50.27-31.61-77.27-37.86-31.86-7.37-70.84-7.35-102.83-.88-27.15 5.5-53.86 20.91-78.62 32.16-49.14 22.33-106.93 115.89-105.6 171.2l2.16 90.21c1.22 50.72 32.35 95.27 66.31 133.83 21.71 24.65 92.33 67.75 118.66 68.24 33.63.63 68.89 5.66 101.79-1.64 55.52-12.32 101.45-56.48 132.08-101.46l9.65-14.17c2.19-3.22 14.95-1.01 18.32 1.89Zm1717.25 110.58 50.5 144c8.66 24.69-94.04 63.51-166.43 63.73l-85.06.25c-65.66-4.77-123.9-26.91-173.58-71.89-55.46-50.22-83.26-132.94-83.56-208.32l-1.58-393.63c-.04-9.66-3.53-20.59-8.83-27.99l-103.75.21c-6.58.01-19.91-9.53-19.5-15.75l2.68-40.7 1.03-116.6c.05-5.7 9.4-16.18 15.57-16.02l68.18 1.82c9.08.24 25.37 4.78 32.76.31 21.44-12.94 13.31-34.85 13.12-54.35l-1.42-145.73c-.06-5.69 11.38-13.42 15.72-13.28l196.7-.03c6.21.07 16.66 2.01 20.36 5.18 4.31 3.7 7.72 15.39 7.66 22.1l-.95 112.9-4.69 31.52c-2.06 13.88-1.46 30.52 10.47 40.06l205.55.15c16.71 14.03 15.12 33.77 9.56 52.12 4.79 23.54 2.43 43.72.72 68.63-1.11 16.09 7.5 42.36 1.29 56.81-8.83 20.56-30.78 10.74-45.75 10.75l-175.19.13c-11.72 22.13-1.96 42.13-1.95 64.09l.08 275.16-3.69 36.83c-4.33 43.18 12.65 91.21 50.74 117.29 17.12 9.62 49.03 16.14 68.44 13.16l58.84-9.05 20.36-15.65c2.52-1.94 11.82-3.02 14.9-2.19 3.84 1.04 8.59 7.94 10.71 13.99Zm3667.79 207.71c-55.45 8.18-111.43 1.46-163.99-13.62l-45.67-18.62c-17.7-7.22-32.89-23.07-47.81-35.45-56.66-47.02-84.58-113.97-84.85-187.91l-1.38-369.64c-.02-5.28-3.86-18.72-2.65-23.62 3.66-14.87 4.63-41.25-11.94-50.83l-77.04-.45c-10.92-.06-38.86 4.41-39.02-15.12l-1.22-150.34c-.05-5.8 5.29-18.31 8.29-24.29l67.55 1.41c16.11.34 35.67 4.5 48.35-9.2 3.16-7.1 7.86-23.64 7.86-31.5l-.05-112.92-7.58-36.81c-1.82-8.84 5.85-22.36 15.94-22.4l187.48-.66c8.1-.03 19.56-2.16 25.73.77 5.55 2.63 10.32 15.81 10.65 23.03l-.37 152.18c-7.66 9.23-1.7 35.45 12.49 35.54l195.59 1.33c19.22 1.73 12.97 31.18 13.04 43.84l.56 105.61c.06 11.88 4.37 24.9-3.52 33.68-7.91 8.8-22.66 5.41-35.04 5.41l-170.26-.04c-21.71 0-13.51 28.37-13.47 39.67l1.47 371.55c.13 32.62 26.08 70.69 55.07 82.87 37.39 15.71 81.92 11.95 118.61-.72 10.78-3.72 18.99-25.84 35.88-15.27 8.31 11.5 15.72 33.55 21.23 49.11l32.47 91.66c6.06 17.1 5.86 34.35-14.44 42.77l-69.7 28.9-68.27 10.07Zm-2563.72088-9.4379.16446-1223.81998 244.77.0329-.16447 1223.81998zM1141.63 1380.36l.03-863.64c11.22-15.06 33.4-5.95 48.56-6l82.94-.26 52.93-.61c14.16-.16 34.96-6.18 48.64 1.85 9.6 5.64 12.61 28.96 10.86 40.04l-8.15 51.74c-.59 3.75 4.71 13.49 7.97 15.16 3.92 2.01 14.4-2 17.08-5.51 19.52-25.52 40.39-43.78 66.92-61.62 50.72-34.12 94.4-41.14 150.66-49.45l48.89-7.23c25.02-3.7 22.09 26.88 22.04 41.76l-.5 147.04c-.04 12.36 9.82 34.6-6.84 43.58l-91.99 2.72c-41.61 1.23-75.78 15.86-109.21 39.22-53.14 37.13-66.9 93.48-83.91 155.92l-.83 446.92c-.02 11.16-5.32 18.74-15.96 20.32l-220.2-.1c-2.71.74-19.94-6.39-19.94-11.86Z"/></svg>